<mxfile host="app.diagrams.net" modified="2022-06-01T01:10:02.721Z" agent="5.0 (Windows NT 10.0; Win64; x64) AppleWebKit/537.36 (KHTML, like Gecko) Chrome/101.0.4951.64 Safari/537.36 Edg/101.0.1210.53" etag="82u3xaLgQ8n-k0EDqpLb" version="18.1.3" type="github">
  <diagram id="Y-fM87gUZxcsIyiKK9y1" name="Page-1">
    <mxGraphModel dx="918" dy="493" grid="1" gridSize="10" guides="1" tooltips="1" connect="1" arrows="1" fold="1" page="1" pageScale="1" pageWidth="827" pageHeight="1169" math="0" shadow="0">
      <root>
        <mxCell id="0" />
        <mxCell id="1" parent="0" />
        <mxCell id="XRB2rXBV-r8s9CtKsTTs-37" value="" style="group" vertex="1" connectable="0" parent="1">
          <mxGeometry x="140" y="140" width="164.21857142857152" height="126.96043478260867" as="geometry" />
        </mxCell>
        <mxCell id="XRB2rXBV-r8s9CtKsTTs-38" value="" style="ellipse;whiteSpace=wrap;html=1;aspect=fixed;" vertex="1" parent="XRB2rXBV-r8s9CtKsTTs-37">
          <mxGeometry x="39.28571428571428" y="72.60434782608695" width="10" height="10" as="geometry" />
        </mxCell>
        <mxCell id="XRB2rXBV-r8s9CtKsTTs-39" style="edgeStyle=none;rounded=0;orthogonalLoop=1;jettySize=auto;html=1;entryX=0.5;entryY=0;entryDx=0;entryDy=0;endArrow=none;endFill=0;" edge="1" parent="XRB2rXBV-r8s9CtKsTTs-37" source="XRB2rXBV-r8s9CtKsTTs-40" target="XRB2rXBV-r8s9CtKsTTs-38">
          <mxGeometry relative="1" as="geometry" />
        </mxCell>
        <mxCell id="XRB2rXBV-r8s9CtKsTTs-40" value="" style="ellipse;whiteSpace=wrap;html=1;aspect=fixed;" vertex="1" parent="XRB2rXBV-r8s9CtKsTTs-37">
          <mxGeometry x="45" y="9.999565217391307" width="10" height="10" as="geometry" />
        </mxCell>
        <mxCell id="XRB2rXBV-r8s9CtKsTTs-41" style="edgeStyle=none;rounded=0;orthogonalLoop=1;jettySize=auto;html=1;entryX=1;entryY=1;entryDx=0;entryDy=0;endArrow=none;endFill=0;" edge="1" parent="XRB2rXBV-r8s9CtKsTTs-37" source="XRB2rXBV-r8s9CtKsTTs-42" target="XRB2rXBV-r8s9CtKsTTs-40">
          <mxGeometry relative="1" as="geometry" />
        </mxCell>
        <mxCell id="XRB2rXBV-r8s9CtKsTTs-42" value="" style="ellipse;whiteSpace=wrap;html=1;aspect=fixed;fillColor=#ffcc99;strokeColor=#36393d;" vertex="1" parent="XRB2rXBV-r8s9CtKsTTs-37">
          <mxGeometry x="100" y="37.82565217391303" width="10" height="10" as="geometry" />
        </mxCell>
        <mxCell id="XRB2rXBV-r8s9CtKsTTs-43" value="" style="ellipse;whiteSpace=wrap;html=1;aspect=fixed;" vertex="1" parent="XRB2rXBV-r8s9CtKsTTs-37">
          <mxGeometry y="65.64782608695651" width="10" height="10" as="geometry" />
        </mxCell>
        <mxCell id="XRB2rXBV-r8s9CtKsTTs-44" style="edgeStyle=none;rounded=0;orthogonalLoop=1;jettySize=auto;html=1;entryX=1;entryY=0;entryDx=0;entryDy=0;endArrow=none;endFill=0;" edge="1" parent="XRB2rXBV-r8s9CtKsTTs-37" source="XRB2rXBV-r8s9CtKsTTs-38" target="XRB2rXBV-r8s9CtKsTTs-43">
          <mxGeometry relative="1" as="geometry" />
        </mxCell>
        <mxCell id="XRB2rXBV-r8s9CtKsTTs-45" style="edgeStyle=none;rounded=0;orthogonalLoop=1;jettySize=auto;html=1;entryX=1;entryY=1;entryDx=0;entryDy=0;endArrow=none;endFill=0;" edge="1" parent="XRB2rXBV-r8s9CtKsTTs-37" source="XRB2rXBV-r8s9CtKsTTs-46" target="XRB2rXBV-r8s9CtKsTTs-43">
          <mxGeometry relative="1" as="geometry" />
        </mxCell>
        <mxCell id="XRB2rXBV-r8s9CtKsTTs-46" value="" style="ellipse;whiteSpace=wrap;html=1;aspect=fixed;" vertex="1" parent="XRB2rXBV-r8s9CtKsTTs-37">
          <mxGeometry x="23.571428571428555" y="107.38695652173914" width="10" height="10" as="geometry" />
        </mxCell>
        <mxCell id="XRB2rXBV-r8s9CtKsTTs-47" style="edgeStyle=none;rounded=0;orthogonalLoop=1;jettySize=auto;html=1;entryX=0.5;entryY=0;entryDx=0;entryDy=0;endArrow=none;endFill=0;" edge="1" parent="XRB2rXBV-r8s9CtKsTTs-37" source="XRB2rXBV-r8s9CtKsTTs-38" target="XRB2rXBV-r8s9CtKsTTs-46">
          <mxGeometry relative="1" as="geometry" />
        </mxCell>
        <mxCell id="XRB2rXBV-r8s9CtKsTTs-48" style="edgeStyle=none;rounded=0;orthogonalLoop=1;jettySize=auto;html=1;entryX=1;entryY=0;entryDx=0;entryDy=0;endArrow=none;endFill=0;" edge="1" parent="XRB2rXBV-r8s9CtKsTTs-37" source="XRB2rXBV-r8s9CtKsTTs-49" target="XRB2rXBV-r8s9CtKsTTs-40">
          <mxGeometry relative="1" as="geometry" />
        </mxCell>
        <mxCell id="XRB2rXBV-r8s9CtKsTTs-49" value="" style="ellipse;whiteSpace=wrap;html=1;aspect=fixed;" vertex="1" parent="XRB2rXBV-r8s9CtKsTTs-37">
          <mxGeometry x="78.57428571428574" width="10" height="10" as="geometry" />
        </mxCell>
        <mxCell id="XRB2rXBV-r8s9CtKsTTs-50" value="" style="ellipse;whiteSpace=wrap;html=1;aspect=fixed;fillColor=#ffcc99;strokeColor=#36393d;" vertex="1" parent="XRB2rXBV-r8s9CtKsTTs-37">
          <mxGeometry x="123.57142857142856" y="65.65173913043475" width="10" height="10" as="geometry" />
        </mxCell>
        <mxCell id="XRB2rXBV-r8s9CtKsTTs-51" style="edgeStyle=none;rounded=0;orthogonalLoop=1;jettySize=auto;html=1;entryX=0.5;entryY=0;entryDx=0;entryDy=0;endArrow=none;endFill=0;" edge="1" parent="XRB2rXBV-r8s9CtKsTTs-37" source="XRB2rXBV-r8s9CtKsTTs-42" target="XRB2rXBV-r8s9CtKsTTs-50">
          <mxGeometry relative="1" as="geometry" />
        </mxCell>
        <mxCell id="XRB2rXBV-r8s9CtKsTTs-52" style="edgeStyle=none;rounded=0;orthogonalLoop=1;jettySize=auto;html=1;entryX=1;entryY=0;entryDx=0;entryDy=0;endArrow=none;endFill=0;" edge="1" parent="XRB2rXBV-r8s9CtKsTTs-37" source="XRB2rXBV-r8s9CtKsTTs-54" target="XRB2rXBV-r8s9CtKsTTs-38">
          <mxGeometry relative="1" as="geometry" />
        </mxCell>
        <mxCell id="XRB2rXBV-r8s9CtKsTTs-53" style="edgeStyle=none;rounded=0;orthogonalLoop=1;jettySize=auto;html=1;entryX=0;entryY=0.5;entryDx=0;entryDy=0;endArrow=none;endFill=0;" edge="1" parent="XRB2rXBV-r8s9CtKsTTs-37" source="XRB2rXBV-r8s9CtKsTTs-54" target="XRB2rXBV-r8s9CtKsTTs-50">
          <mxGeometry relative="1" as="geometry" />
        </mxCell>
        <mxCell id="XRB2rXBV-r8s9CtKsTTs-54" value="" style="ellipse;whiteSpace=wrap;html=1;aspect=fixed;fillColor=#ffcc99;strokeColor=#36393d;" vertex="1" parent="XRB2rXBV-r8s9CtKsTTs-37">
          <mxGeometry x="70.71428571428572" y="58.691304347826076" width="10" height="10" as="geometry" />
        </mxCell>
        <mxCell id="XRB2rXBV-r8s9CtKsTTs-55" style="edgeStyle=none;rounded=0;orthogonalLoop=1;jettySize=auto;html=1;entryX=1;entryY=1;entryDx=0;entryDy=0;endArrow=none;endFill=0;fillColor=#ffcc99;strokeColor=#36393d;" edge="1" parent="XRB2rXBV-r8s9CtKsTTs-37" source="XRB2rXBV-r8s9CtKsTTs-56" target="XRB2rXBV-r8s9CtKsTTs-38">
          <mxGeometry relative="1" as="geometry" />
        </mxCell>
        <mxCell id="XRB2rXBV-r8s9CtKsTTs-56" value="" style="ellipse;whiteSpace=wrap;html=1;aspect=fixed;" vertex="1" parent="XRB2rXBV-r8s9CtKsTTs-37">
          <mxGeometry x="78.57142857142856" y="107.38695652173914" width="10" height="10" as="geometry" />
        </mxCell>
        <mxCell id="XRB2rXBV-r8s9CtKsTTs-57" style="edgeStyle=none;rounded=0;orthogonalLoop=1;jettySize=auto;html=1;entryX=0.5;entryY=0;entryDx=0;entryDy=0;endArrow=none;endFill=0;" edge="1" parent="XRB2rXBV-r8s9CtKsTTs-37" source="XRB2rXBV-r8s9CtKsTTs-54" target="XRB2rXBV-r8s9CtKsTTs-56">
          <mxGeometry relative="1" as="geometry" />
        </mxCell>
        <mxCell id="XRB2rXBV-r8s9CtKsTTs-58" value="" style="ellipse;whiteSpace=wrap;html=1;aspect=fixed;" vertex="1" parent="XRB2rXBV-r8s9CtKsTTs-37">
          <mxGeometry x="154.21428571428578" y="44.782173913043465" width="10" height="10" as="geometry" />
        </mxCell>
        <mxCell id="XRB2rXBV-r8s9CtKsTTs-59" value="" style="rounded=0;orthogonalLoop=1;jettySize=auto;html=1;endArrow=none;endFill=0;" edge="1" parent="XRB2rXBV-r8s9CtKsTTs-37" source="XRB2rXBV-r8s9CtKsTTs-42" target="XRB2rXBV-r8s9CtKsTTs-58">
          <mxGeometry relative="1" as="geometry" />
        </mxCell>
        <mxCell id="XRB2rXBV-r8s9CtKsTTs-60" style="edgeStyle=none;rounded=0;orthogonalLoop=1;jettySize=auto;html=1;entryX=0.5;entryY=1;entryDx=0;entryDy=0;endArrow=none;endFill=0;" edge="1" parent="XRB2rXBV-r8s9CtKsTTs-37" source="XRB2rXBV-r8s9CtKsTTs-50" target="XRB2rXBV-r8s9CtKsTTs-58">
          <mxGeometry relative="1" as="geometry" />
        </mxCell>
        <mxCell id="XRB2rXBV-r8s9CtKsTTs-61" style="edgeStyle=none;rounded=0;orthogonalLoop=1;jettySize=auto;html=1;endArrow=none;endFill=0;entryX=0;entryY=0;entryDx=0;entryDy=0;" edge="1" parent="XRB2rXBV-r8s9CtKsTTs-37" source="XRB2rXBV-r8s9CtKsTTs-62" target="XRB2rXBV-r8s9CtKsTTs-58">
          <mxGeometry relative="1" as="geometry">
            <mxPoint x="162.8571428571429" y="44.782173913043465" as="targetPoint" />
          </mxGeometry>
        </mxCell>
        <mxCell id="XRB2rXBV-r8s9CtKsTTs-62" value="" style="ellipse;whiteSpace=wrap;html=1;aspect=fixed;fillColor=#ffcc99;strokeColor=#36393d;" vertex="1" parent="XRB2rXBV-r8s9CtKsTTs-37">
          <mxGeometry x="138.5" y="9.999565217391307" width="10" height="10" as="geometry" />
        </mxCell>
        <mxCell id="XRB2rXBV-r8s9CtKsTTs-63" value="" style="rounded=0;orthogonalLoop=1;jettySize=auto;html=1;endArrow=none;endFill=0;" edge="1" parent="XRB2rXBV-r8s9CtKsTTs-37" source="XRB2rXBV-r8s9CtKsTTs-42" target="XRB2rXBV-r8s9CtKsTTs-62">
          <mxGeometry relative="1" as="geometry" />
        </mxCell>
        <mxCell id="XRB2rXBV-r8s9CtKsTTs-64" value="" style="ellipse;whiteSpace=wrap;html=1;aspect=fixed;" vertex="1" parent="XRB2rXBV-r8s9CtKsTTs-37">
          <mxGeometry x="129.0757142857143" y="116.96043478260867" width="10" height="10" as="geometry" />
        </mxCell>
        <mxCell id="XRB2rXBV-r8s9CtKsTTs-65" value="" style="ellipse;whiteSpace=wrap;html=1;aspect=fixed;fillColor=#ffcc99;strokeColor=#36393d;" vertex="1" parent="XRB2rXBV-r8s9CtKsTTs-37">
          <mxGeometry x="117.28999999999996" y="96.09086956521736" width="10" height="10" as="geometry" />
        </mxCell>
        <mxCell id="XRB2rXBV-r8s9CtKsTTs-66" style="edgeStyle=none;rounded=0;orthogonalLoop=1;jettySize=auto;html=1;endArrow=none;endFill=0;entryX=0;entryY=0;entryDx=0;entryDy=0;" edge="1" parent="XRB2rXBV-r8s9CtKsTTs-37" source="XRB2rXBV-r8s9CtKsTTs-50" target="XRB2rXBV-r8s9CtKsTTs-65">
          <mxGeometry relative="1" as="geometry">
            <mxPoint x="153.42857142857144" y="107.39086956521737" as="targetPoint" />
          </mxGeometry>
        </mxCell>
        <mxCell id="XRB2rXBV-r8s9CtKsTTs-67" style="edgeStyle=none;rounded=0;orthogonalLoop=1;jettySize=auto;html=1;entryX=0;entryY=0.5;entryDx=0;entryDy=0;endArrow=none;endFill=0;" edge="1" parent="XRB2rXBV-r8s9CtKsTTs-37" source="XRB2rXBV-r8s9CtKsTTs-68" target="XRB2rXBV-r8s9CtKsTTs-64">
          <mxGeometry relative="1" as="geometry" />
        </mxCell>
        <mxCell id="XRB2rXBV-r8s9CtKsTTs-68" value="" style="ellipse;whiteSpace=wrap;html=1;aspect=fixed;" vertex="1" parent="XRB2rXBV-r8s9CtKsTTs-37">
          <mxGeometry x="106.28999999999996" y="116.96043478260867" width="10" height="10" as="geometry" />
        </mxCell>
        <mxCell id="XRB2rXBV-r8s9CtKsTTs-69" style="edgeStyle=none;rounded=0;orthogonalLoop=1;jettySize=auto;html=1;entryX=0.5;entryY=0;entryDx=0;entryDy=0;endArrow=none;endFill=0;" edge="1" parent="XRB2rXBV-r8s9CtKsTTs-37" source="XRB2rXBV-r8s9CtKsTTs-65" target="XRB2rXBV-r8s9CtKsTTs-68">
          <mxGeometry relative="1" as="geometry" />
        </mxCell>
        <mxCell id="XRB2rXBV-r8s9CtKsTTs-70" value="" style="ellipse;whiteSpace=wrap;html=1;aspect=fixed;" vertex="1" parent="XRB2rXBV-r8s9CtKsTTs-37">
          <mxGeometry x="154.21857142857152" y="89.13434782608692" width="10" height="10" as="geometry" />
        </mxCell>
        <mxCell id="XRB2rXBV-r8s9CtKsTTs-71" style="edgeStyle=none;rounded=0;orthogonalLoop=1;jettySize=auto;html=1;entryX=0;entryY=1;entryDx=0;entryDy=0;endArrow=none;endFill=0;" edge="1" parent="XRB2rXBV-r8s9CtKsTTs-37" source="XRB2rXBV-r8s9CtKsTTs-64" target="XRB2rXBV-r8s9CtKsTTs-70">
          <mxGeometry relative="1" as="geometry" />
        </mxCell>
        <mxCell id="XRB2rXBV-r8s9CtKsTTs-72" style="edgeStyle=none;rounded=0;orthogonalLoop=1;jettySize=auto;html=1;entryX=0;entryY=0.5;entryDx=0;entryDy=0;endArrow=none;endFill=0;" edge="1" parent="XRB2rXBV-r8s9CtKsTTs-37" source="XRB2rXBV-r8s9CtKsTTs-65" target="XRB2rXBV-r8s9CtKsTTs-70">
          <mxGeometry relative="1" as="geometry" />
        </mxCell>
        <mxCell id="XRB2rXBV-r8s9CtKsTTs-73" value="" style="group" vertex="1" connectable="0" parent="1">
          <mxGeometry x="140" y="290" width="164.21857142857152" height="126.96043478260867" as="geometry" />
        </mxCell>
        <mxCell id="XRB2rXBV-r8s9CtKsTTs-74" value="" style="ellipse;whiteSpace=wrap;html=1;aspect=fixed;" vertex="1" parent="XRB2rXBV-r8s9CtKsTTs-73">
          <mxGeometry x="39.28571428571428" y="72.60434782608695" width="10" height="10" as="geometry" />
        </mxCell>
        <mxCell id="XRB2rXBV-r8s9CtKsTTs-75" style="edgeStyle=none;rounded=0;orthogonalLoop=1;jettySize=auto;html=1;entryX=0.5;entryY=0;entryDx=0;entryDy=0;endArrow=none;endFill=0;" edge="1" parent="XRB2rXBV-r8s9CtKsTTs-73" source="XRB2rXBV-r8s9CtKsTTs-76" target="XRB2rXBV-r8s9CtKsTTs-74">
          <mxGeometry relative="1" as="geometry" />
        </mxCell>
        <mxCell id="XRB2rXBV-r8s9CtKsTTs-76" value="" style="ellipse;whiteSpace=wrap;html=1;aspect=fixed;fillColor=#ffcc99;strokeColor=#36393d;" vertex="1" parent="XRB2rXBV-r8s9CtKsTTs-73">
          <mxGeometry x="45" y="9.999565217391307" width="10" height="10" as="geometry" />
        </mxCell>
        <mxCell id="XRB2rXBV-r8s9CtKsTTs-77" style="edgeStyle=none;rounded=0;orthogonalLoop=1;jettySize=auto;html=1;entryX=1;entryY=1;entryDx=0;entryDy=0;endArrow=none;endFill=0;" edge="1" parent="XRB2rXBV-r8s9CtKsTTs-73" source="XRB2rXBV-r8s9CtKsTTs-78" target="XRB2rXBV-r8s9CtKsTTs-76">
          <mxGeometry relative="1" as="geometry" />
        </mxCell>
        <mxCell id="XRB2rXBV-r8s9CtKsTTs-78" value="" style="ellipse;whiteSpace=wrap;html=1;aspect=fixed;fillColor=#ffcc99;strokeColor=#36393d;" vertex="1" parent="XRB2rXBV-r8s9CtKsTTs-73">
          <mxGeometry x="100" y="37.82565217391303" width="10" height="10" as="geometry" />
        </mxCell>
        <mxCell id="XRB2rXBV-r8s9CtKsTTs-79" value="" style="ellipse;whiteSpace=wrap;html=1;aspect=fixed;" vertex="1" parent="XRB2rXBV-r8s9CtKsTTs-73">
          <mxGeometry y="65.64782608695651" width="10" height="10" as="geometry" />
        </mxCell>
        <mxCell id="XRB2rXBV-r8s9CtKsTTs-80" style="edgeStyle=none;rounded=0;orthogonalLoop=1;jettySize=auto;html=1;entryX=1;entryY=0;entryDx=0;entryDy=0;endArrow=none;endFill=0;" edge="1" parent="XRB2rXBV-r8s9CtKsTTs-73" source="XRB2rXBV-r8s9CtKsTTs-74" target="XRB2rXBV-r8s9CtKsTTs-79">
          <mxGeometry relative="1" as="geometry" />
        </mxCell>
        <mxCell id="XRB2rXBV-r8s9CtKsTTs-81" style="edgeStyle=none;rounded=0;orthogonalLoop=1;jettySize=auto;html=1;entryX=1;entryY=1;entryDx=0;entryDy=0;endArrow=none;endFill=0;" edge="1" parent="XRB2rXBV-r8s9CtKsTTs-73" source="XRB2rXBV-r8s9CtKsTTs-82" target="XRB2rXBV-r8s9CtKsTTs-79">
          <mxGeometry relative="1" as="geometry" />
        </mxCell>
        <mxCell id="XRB2rXBV-r8s9CtKsTTs-82" value="" style="ellipse;whiteSpace=wrap;html=1;aspect=fixed;" vertex="1" parent="XRB2rXBV-r8s9CtKsTTs-73">
          <mxGeometry x="23.571428571428555" y="107.38695652173914" width="10" height="10" as="geometry" />
        </mxCell>
        <mxCell id="XRB2rXBV-r8s9CtKsTTs-83" style="edgeStyle=none;rounded=0;orthogonalLoop=1;jettySize=auto;html=1;entryX=0.5;entryY=0;entryDx=0;entryDy=0;endArrow=none;endFill=0;" edge="1" parent="XRB2rXBV-r8s9CtKsTTs-73" source="XRB2rXBV-r8s9CtKsTTs-74" target="XRB2rXBV-r8s9CtKsTTs-82">
          <mxGeometry relative="1" as="geometry" />
        </mxCell>
        <mxCell id="XRB2rXBV-r8s9CtKsTTs-84" style="edgeStyle=none;rounded=0;orthogonalLoop=1;jettySize=auto;html=1;entryX=1;entryY=0;entryDx=0;entryDy=0;endArrow=none;endFill=0;" edge="1" parent="XRB2rXBV-r8s9CtKsTTs-73" source="XRB2rXBV-r8s9CtKsTTs-85" target="XRB2rXBV-r8s9CtKsTTs-76">
          <mxGeometry relative="1" as="geometry" />
        </mxCell>
        <mxCell id="XRB2rXBV-r8s9CtKsTTs-85" value="" style="ellipse;whiteSpace=wrap;html=1;aspect=fixed;" vertex="1" parent="XRB2rXBV-r8s9CtKsTTs-73">
          <mxGeometry x="78.57428571428574" width="10" height="10" as="geometry" />
        </mxCell>
        <mxCell id="XRB2rXBV-r8s9CtKsTTs-86" value="" style="ellipse;whiteSpace=wrap;html=1;aspect=fixed;fillColor=#ffcc99;strokeColor=#36393d;" vertex="1" parent="XRB2rXBV-r8s9CtKsTTs-73">
          <mxGeometry x="123.57142857142856" y="65.65173913043475" width="10" height="10" as="geometry" />
        </mxCell>
        <mxCell id="XRB2rXBV-r8s9CtKsTTs-87" style="edgeStyle=none;rounded=0;orthogonalLoop=1;jettySize=auto;html=1;entryX=0.5;entryY=0;entryDx=0;entryDy=0;endArrow=none;endFill=0;" edge="1" parent="XRB2rXBV-r8s9CtKsTTs-73" source="XRB2rXBV-r8s9CtKsTTs-78" target="XRB2rXBV-r8s9CtKsTTs-86">
          <mxGeometry relative="1" as="geometry" />
        </mxCell>
        <mxCell id="XRB2rXBV-r8s9CtKsTTs-88" style="edgeStyle=none;rounded=0;orthogonalLoop=1;jettySize=auto;html=1;entryX=1;entryY=0;entryDx=0;entryDy=0;endArrow=none;endFill=0;" edge="1" parent="XRB2rXBV-r8s9CtKsTTs-73" source="XRB2rXBV-r8s9CtKsTTs-90" target="XRB2rXBV-r8s9CtKsTTs-74">
          <mxGeometry relative="1" as="geometry" />
        </mxCell>
        <mxCell id="XRB2rXBV-r8s9CtKsTTs-89" style="edgeStyle=none;rounded=0;orthogonalLoop=1;jettySize=auto;html=1;entryX=0;entryY=0.5;entryDx=0;entryDy=0;endArrow=none;endFill=0;" edge="1" parent="XRB2rXBV-r8s9CtKsTTs-73" source="XRB2rXBV-r8s9CtKsTTs-90" target="XRB2rXBV-r8s9CtKsTTs-86">
          <mxGeometry relative="1" as="geometry" />
        </mxCell>
        <mxCell id="XRB2rXBV-r8s9CtKsTTs-90" value="" style="ellipse;whiteSpace=wrap;html=1;aspect=fixed;fillColor=#ffcc99;strokeColor=#36393d;" vertex="1" parent="XRB2rXBV-r8s9CtKsTTs-73">
          <mxGeometry x="70.71428571428572" y="58.691304347826076" width="10" height="10" as="geometry" />
        </mxCell>
        <mxCell id="XRB2rXBV-r8s9CtKsTTs-91" style="edgeStyle=none;rounded=0;orthogonalLoop=1;jettySize=auto;html=1;entryX=1;entryY=1;entryDx=0;entryDy=0;endArrow=none;endFill=0;fillColor=#ffcc99;strokeColor=#36393d;" edge="1" parent="XRB2rXBV-r8s9CtKsTTs-73" source="XRB2rXBV-r8s9CtKsTTs-92" target="XRB2rXBV-r8s9CtKsTTs-74">
          <mxGeometry relative="1" as="geometry" />
        </mxCell>
        <mxCell id="XRB2rXBV-r8s9CtKsTTs-92" value="" style="ellipse;whiteSpace=wrap;html=1;aspect=fixed;" vertex="1" parent="XRB2rXBV-r8s9CtKsTTs-73">
          <mxGeometry x="78.57142857142856" y="107.38695652173914" width="10" height="10" as="geometry" />
        </mxCell>
        <mxCell id="XRB2rXBV-r8s9CtKsTTs-93" style="edgeStyle=none;rounded=0;orthogonalLoop=1;jettySize=auto;html=1;entryX=0.5;entryY=0;entryDx=0;entryDy=0;endArrow=none;endFill=0;" edge="1" parent="XRB2rXBV-r8s9CtKsTTs-73" source="XRB2rXBV-r8s9CtKsTTs-90" target="XRB2rXBV-r8s9CtKsTTs-92">
          <mxGeometry relative="1" as="geometry" />
        </mxCell>
        <mxCell id="XRB2rXBV-r8s9CtKsTTs-94" value="" style="ellipse;whiteSpace=wrap;html=1;aspect=fixed;" vertex="1" parent="XRB2rXBV-r8s9CtKsTTs-73">
          <mxGeometry x="154.21428571428578" y="44.782173913043465" width="10" height="10" as="geometry" />
        </mxCell>
        <mxCell id="XRB2rXBV-r8s9CtKsTTs-95" value="" style="rounded=0;orthogonalLoop=1;jettySize=auto;html=1;endArrow=none;endFill=0;" edge="1" parent="XRB2rXBV-r8s9CtKsTTs-73" source="XRB2rXBV-r8s9CtKsTTs-78" target="XRB2rXBV-r8s9CtKsTTs-94">
          <mxGeometry relative="1" as="geometry" />
        </mxCell>
        <mxCell id="XRB2rXBV-r8s9CtKsTTs-96" style="edgeStyle=none;rounded=0;orthogonalLoop=1;jettySize=auto;html=1;entryX=0.5;entryY=1;entryDx=0;entryDy=0;endArrow=none;endFill=0;" edge="1" parent="XRB2rXBV-r8s9CtKsTTs-73" source="XRB2rXBV-r8s9CtKsTTs-86" target="XRB2rXBV-r8s9CtKsTTs-94">
          <mxGeometry relative="1" as="geometry" />
        </mxCell>
        <mxCell id="XRB2rXBV-r8s9CtKsTTs-97" style="edgeStyle=none;rounded=0;orthogonalLoop=1;jettySize=auto;html=1;endArrow=none;endFill=0;entryX=0;entryY=0;entryDx=0;entryDy=0;" edge="1" parent="XRB2rXBV-r8s9CtKsTTs-73" source="XRB2rXBV-r8s9CtKsTTs-98" target="XRB2rXBV-r8s9CtKsTTs-94">
          <mxGeometry relative="1" as="geometry">
            <mxPoint x="162.8571428571429" y="44.782173913043465" as="targetPoint" />
          </mxGeometry>
        </mxCell>
        <mxCell id="XRB2rXBV-r8s9CtKsTTs-98" value="" style="ellipse;whiteSpace=wrap;html=1;aspect=fixed;fillColor=#ffcc99;strokeColor=#36393d;" vertex="1" parent="XRB2rXBV-r8s9CtKsTTs-73">
          <mxGeometry x="138.5" y="9.999565217391307" width="10" height="10" as="geometry" />
        </mxCell>
        <mxCell id="XRB2rXBV-r8s9CtKsTTs-99" value="" style="rounded=0;orthogonalLoop=1;jettySize=auto;html=1;endArrow=none;endFill=0;" edge="1" parent="XRB2rXBV-r8s9CtKsTTs-73" source="XRB2rXBV-r8s9CtKsTTs-78" target="XRB2rXBV-r8s9CtKsTTs-98">
          <mxGeometry relative="1" as="geometry" />
        </mxCell>
        <mxCell id="XRB2rXBV-r8s9CtKsTTs-100" value="" style="ellipse;whiteSpace=wrap;html=1;aspect=fixed;" vertex="1" parent="XRB2rXBV-r8s9CtKsTTs-73">
          <mxGeometry x="129.0757142857143" y="116.96043478260867" width="10" height="10" as="geometry" />
        </mxCell>
        <mxCell id="XRB2rXBV-r8s9CtKsTTs-101" value="" style="ellipse;whiteSpace=wrap;html=1;aspect=fixed;fillColor=#ffcc99;strokeColor=#36393d;" vertex="1" parent="XRB2rXBV-r8s9CtKsTTs-73">
          <mxGeometry x="117.28999999999996" y="96.09086956521736" width="10" height="10" as="geometry" />
        </mxCell>
        <mxCell id="XRB2rXBV-r8s9CtKsTTs-102" style="edgeStyle=none;rounded=0;orthogonalLoop=1;jettySize=auto;html=1;endArrow=none;endFill=0;entryX=0;entryY=0;entryDx=0;entryDy=0;" edge="1" parent="XRB2rXBV-r8s9CtKsTTs-73" source="XRB2rXBV-r8s9CtKsTTs-86" target="XRB2rXBV-r8s9CtKsTTs-101">
          <mxGeometry relative="1" as="geometry">
            <mxPoint x="153.42857142857144" y="107.39086956521737" as="targetPoint" />
          </mxGeometry>
        </mxCell>
        <mxCell id="XRB2rXBV-r8s9CtKsTTs-103" style="edgeStyle=none;rounded=0;orthogonalLoop=1;jettySize=auto;html=1;entryX=0;entryY=0.5;entryDx=0;entryDy=0;endArrow=none;endFill=0;" edge="1" parent="XRB2rXBV-r8s9CtKsTTs-73" source="XRB2rXBV-r8s9CtKsTTs-104" target="XRB2rXBV-r8s9CtKsTTs-100">
          <mxGeometry relative="1" as="geometry" />
        </mxCell>
        <mxCell id="XRB2rXBV-r8s9CtKsTTs-104" value="" style="ellipse;whiteSpace=wrap;html=1;aspect=fixed;" vertex="1" parent="XRB2rXBV-r8s9CtKsTTs-73">
          <mxGeometry x="106.28999999999996" y="116.96043478260867" width="10" height="10" as="geometry" />
        </mxCell>
        <mxCell id="XRB2rXBV-r8s9CtKsTTs-105" style="edgeStyle=none;rounded=0;orthogonalLoop=1;jettySize=auto;html=1;entryX=0.5;entryY=0;entryDx=0;entryDy=0;endArrow=none;endFill=0;" edge="1" parent="XRB2rXBV-r8s9CtKsTTs-73" source="XRB2rXBV-r8s9CtKsTTs-101" target="XRB2rXBV-r8s9CtKsTTs-104">
          <mxGeometry relative="1" as="geometry" />
        </mxCell>
        <mxCell id="XRB2rXBV-r8s9CtKsTTs-106" value="" style="ellipse;whiteSpace=wrap;html=1;aspect=fixed;" vertex="1" parent="XRB2rXBV-r8s9CtKsTTs-73">
          <mxGeometry x="154.21857142857152" y="89.13434782608692" width="10" height="10" as="geometry" />
        </mxCell>
        <mxCell id="XRB2rXBV-r8s9CtKsTTs-107" style="edgeStyle=none;rounded=0;orthogonalLoop=1;jettySize=auto;html=1;entryX=0;entryY=1;entryDx=0;entryDy=0;endArrow=none;endFill=0;" edge="1" parent="XRB2rXBV-r8s9CtKsTTs-73" source="XRB2rXBV-r8s9CtKsTTs-100" target="XRB2rXBV-r8s9CtKsTTs-106">
          <mxGeometry relative="1" as="geometry" />
        </mxCell>
        <mxCell id="XRB2rXBV-r8s9CtKsTTs-108" style="edgeStyle=none;rounded=0;orthogonalLoop=1;jettySize=auto;html=1;entryX=0;entryY=0.5;entryDx=0;entryDy=0;endArrow=none;endFill=0;" edge="1" parent="XRB2rXBV-r8s9CtKsTTs-73" source="XRB2rXBV-r8s9CtKsTTs-101" target="XRB2rXBV-r8s9CtKsTTs-106">
          <mxGeometry relative="1" as="geometry" />
        </mxCell>
        <mxCell id="XRB2rXBV-r8s9CtKsTTs-143" value="" style="endArrow=classic;html=1;rounded=0;" edge="1" parent="1">
          <mxGeometry width="50" height="50" relative="1" as="geometry">
            <mxPoint x="320" y="280" as="sourcePoint" />
            <mxPoint x="460" y="280" as="targetPoint" />
          </mxGeometry>
        </mxCell>
        <mxCell id="XRB2rXBV-r8s9CtKsTTs-144" value="detection" style="edgeLabel;html=1;align=center;verticalAlign=middle;resizable=0;points=[];" vertex="1" connectable="0" parent="XRB2rXBV-r8s9CtKsTTs-143">
          <mxGeometry x="-0.3023" relative="1" as="geometry">
            <mxPoint x="21" y="-10" as="offset" />
          </mxGeometry>
        </mxCell>
        <mxCell id="XRB2rXBV-r8s9CtKsTTs-145" value="" style="group" vertex="1" connectable="0" parent="1">
          <mxGeometry x="470" y="220" width="164.21857142857152" height="126.96043478260867" as="geometry" />
        </mxCell>
        <mxCell id="XRB2rXBV-r8s9CtKsTTs-146" value="" style="ellipse;whiteSpace=wrap;html=1;aspect=fixed;" vertex="1" parent="XRB2rXBV-r8s9CtKsTTs-145">
          <mxGeometry x="39.28571428571428" y="72.60434782608695" width="10" height="10" as="geometry" />
        </mxCell>
        <mxCell id="XRB2rXBV-r8s9CtKsTTs-147" style="edgeStyle=none;rounded=0;orthogonalLoop=1;jettySize=auto;html=1;entryX=0.5;entryY=0;entryDx=0;entryDy=0;endArrow=none;endFill=0;" edge="1" parent="XRB2rXBV-r8s9CtKsTTs-145" source="XRB2rXBV-r8s9CtKsTTs-148" target="XRB2rXBV-r8s9CtKsTTs-146">
          <mxGeometry relative="1" as="geometry" />
        </mxCell>
        <mxCell id="XRB2rXBV-r8s9CtKsTTs-148" value="" style="ellipse;whiteSpace=wrap;html=1;aspect=fixed;" vertex="1" parent="XRB2rXBV-r8s9CtKsTTs-145">
          <mxGeometry x="45" y="9.999565217391307" width="10" height="10" as="geometry" />
        </mxCell>
        <mxCell id="XRB2rXBV-r8s9CtKsTTs-149" style="edgeStyle=none;rounded=0;orthogonalLoop=1;jettySize=auto;html=1;entryX=1;entryY=1;entryDx=0;entryDy=0;endArrow=none;endFill=0;" edge="1" parent="XRB2rXBV-r8s9CtKsTTs-145" source="XRB2rXBV-r8s9CtKsTTs-150" target="XRB2rXBV-r8s9CtKsTTs-148">
          <mxGeometry relative="1" as="geometry" />
        </mxCell>
        <mxCell id="XRB2rXBV-r8s9CtKsTTs-150" value="" style="ellipse;whiteSpace=wrap;html=1;aspect=fixed;" vertex="1" parent="XRB2rXBV-r8s9CtKsTTs-145">
          <mxGeometry x="100" y="37.82565217391303" width="10" height="10" as="geometry" />
        </mxCell>
        <mxCell id="XRB2rXBV-r8s9CtKsTTs-151" value="" style="ellipse;whiteSpace=wrap;html=1;aspect=fixed;" vertex="1" parent="XRB2rXBV-r8s9CtKsTTs-145">
          <mxGeometry y="65.64782608695651" width="10" height="10" as="geometry" />
        </mxCell>
        <mxCell id="XRB2rXBV-r8s9CtKsTTs-152" style="edgeStyle=none;rounded=0;orthogonalLoop=1;jettySize=auto;html=1;entryX=1;entryY=0;entryDx=0;entryDy=0;endArrow=none;endFill=0;" edge="1" parent="XRB2rXBV-r8s9CtKsTTs-145" source="XRB2rXBV-r8s9CtKsTTs-146" target="XRB2rXBV-r8s9CtKsTTs-151">
          <mxGeometry relative="1" as="geometry" />
        </mxCell>
        <mxCell id="XRB2rXBV-r8s9CtKsTTs-153" style="edgeStyle=none;rounded=0;orthogonalLoop=1;jettySize=auto;html=1;entryX=1;entryY=1;entryDx=0;entryDy=0;endArrow=none;endFill=0;" edge="1" parent="XRB2rXBV-r8s9CtKsTTs-145" source="XRB2rXBV-r8s9CtKsTTs-154" target="XRB2rXBV-r8s9CtKsTTs-151">
          <mxGeometry relative="1" as="geometry" />
        </mxCell>
        <mxCell id="XRB2rXBV-r8s9CtKsTTs-154" value="" style="ellipse;whiteSpace=wrap;html=1;aspect=fixed;" vertex="1" parent="XRB2rXBV-r8s9CtKsTTs-145">
          <mxGeometry x="23.571428571428555" y="107.38695652173914" width="10" height="10" as="geometry" />
        </mxCell>
        <mxCell id="XRB2rXBV-r8s9CtKsTTs-155" style="edgeStyle=none;rounded=0;orthogonalLoop=1;jettySize=auto;html=1;entryX=0.5;entryY=0;entryDx=0;entryDy=0;endArrow=none;endFill=0;" edge="1" parent="XRB2rXBV-r8s9CtKsTTs-145" source="XRB2rXBV-r8s9CtKsTTs-146" target="XRB2rXBV-r8s9CtKsTTs-154">
          <mxGeometry relative="1" as="geometry" />
        </mxCell>
        <mxCell id="XRB2rXBV-r8s9CtKsTTs-156" style="edgeStyle=none;rounded=0;orthogonalLoop=1;jettySize=auto;html=1;entryX=1;entryY=0;entryDx=0;entryDy=0;endArrow=none;endFill=0;" edge="1" parent="XRB2rXBV-r8s9CtKsTTs-145" source="XRB2rXBV-r8s9CtKsTTs-157" target="XRB2rXBV-r8s9CtKsTTs-148">
          <mxGeometry relative="1" as="geometry" />
        </mxCell>
        <mxCell id="XRB2rXBV-r8s9CtKsTTs-157" value="" style="ellipse;whiteSpace=wrap;html=1;aspect=fixed;" vertex="1" parent="XRB2rXBV-r8s9CtKsTTs-145">
          <mxGeometry x="78.57428571428574" width="10" height="10" as="geometry" />
        </mxCell>
        <mxCell id="XRB2rXBV-r8s9CtKsTTs-158" value="" style="ellipse;whiteSpace=wrap;html=1;aspect=fixed;fillColor=#a20025;strokeColor=#6F0000;fontColor=#ffffff;" vertex="1" parent="XRB2rXBV-r8s9CtKsTTs-145">
          <mxGeometry x="123.57142857142856" y="65.65173913043475" width="10" height="10" as="geometry" />
        </mxCell>
        <mxCell id="XRB2rXBV-r8s9CtKsTTs-159" style="edgeStyle=none;rounded=0;orthogonalLoop=1;jettySize=auto;html=1;entryX=0.5;entryY=0;entryDx=0;entryDy=0;endArrow=none;endFill=0;" edge="1" parent="XRB2rXBV-r8s9CtKsTTs-145" source="XRB2rXBV-r8s9CtKsTTs-150" target="XRB2rXBV-r8s9CtKsTTs-158">
          <mxGeometry relative="1" as="geometry" />
        </mxCell>
        <mxCell id="XRB2rXBV-r8s9CtKsTTs-160" style="edgeStyle=none;rounded=0;orthogonalLoop=1;jettySize=auto;html=1;entryX=1;entryY=0;entryDx=0;entryDy=0;endArrow=none;endFill=0;" edge="1" parent="XRB2rXBV-r8s9CtKsTTs-145" source="XRB2rXBV-r8s9CtKsTTs-162" target="XRB2rXBV-r8s9CtKsTTs-146">
          <mxGeometry relative="1" as="geometry" />
        </mxCell>
        <mxCell id="XRB2rXBV-r8s9CtKsTTs-161" style="edgeStyle=none;rounded=0;orthogonalLoop=1;jettySize=auto;html=1;entryX=0;entryY=0.5;entryDx=0;entryDy=0;endArrow=none;endFill=0;" edge="1" parent="XRB2rXBV-r8s9CtKsTTs-145" source="XRB2rXBV-r8s9CtKsTTs-162" target="XRB2rXBV-r8s9CtKsTTs-158">
          <mxGeometry relative="1" as="geometry" />
        </mxCell>
        <mxCell id="XRB2rXBV-r8s9CtKsTTs-162" value="" style="ellipse;whiteSpace=wrap;html=1;aspect=fixed;" vertex="1" parent="XRB2rXBV-r8s9CtKsTTs-145">
          <mxGeometry x="70.71428571428572" y="58.691304347826076" width="10" height="10" as="geometry" />
        </mxCell>
        <mxCell id="XRB2rXBV-r8s9CtKsTTs-163" style="edgeStyle=none;rounded=0;orthogonalLoop=1;jettySize=auto;html=1;entryX=1;entryY=1;entryDx=0;entryDy=0;endArrow=none;endFill=0;fillColor=#ffcc99;strokeColor=#36393d;" edge="1" parent="XRB2rXBV-r8s9CtKsTTs-145" source="XRB2rXBV-r8s9CtKsTTs-164" target="XRB2rXBV-r8s9CtKsTTs-146">
          <mxGeometry relative="1" as="geometry" />
        </mxCell>
        <mxCell id="XRB2rXBV-r8s9CtKsTTs-164" value="" style="ellipse;whiteSpace=wrap;html=1;aspect=fixed;" vertex="1" parent="XRB2rXBV-r8s9CtKsTTs-145">
          <mxGeometry x="78.57142857142856" y="107.38695652173914" width="10" height="10" as="geometry" />
        </mxCell>
        <mxCell id="XRB2rXBV-r8s9CtKsTTs-165" style="edgeStyle=none;rounded=0;orthogonalLoop=1;jettySize=auto;html=1;entryX=0.5;entryY=0;entryDx=0;entryDy=0;endArrow=none;endFill=0;" edge="1" parent="XRB2rXBV-r8s9CtKsTTs-145" source="XRB2rXBV-r8s9CtKsTTs-162" target="XRB2rXBV-r8s9CtKsTTs-164">
          <mxGeometry relative="1" as="geometry" />
        </mxCell>
        <mxCell id="XRB2rXBV-r8s9CtKsTTs-166" value="" style="ellipse;whiteSpace=wrap;html=1;aspect=fixed;" vertex="1" parent="XRB2rXBV-r8s9CtKsTTs-145">
          <mxGeometry x="154.21428571428578" y="44.782173913043465" width="10" height="10" as="geometry" />
        </mxCell>
        <mxCell id="XRB2rXBV-r8s9CtKsTTs-167" value="" style="rounded=0;orthogonalLoop=1;jettySize=auto;html=1;endArrow=none;endFill=0;" edge="1" parent="XRB2rXBV-r8s9CtKsTTs-145" source="XRB2rXBV-r8s9CtKsTTs-150" target="XRB2rXBV-r8s9CtKsTTs-166">
          <mxGeometry relative="1" as="geometry" />
        </mxCell>
        <mxCell id="XRB2rXBV-r8s9CtKsTTs-168" style="edgeStyle=none;rounded=0;orthogonalLoop=1;jettySize=auto;html=1;entryX=0.5;entryY=1;entryDx=0;entryDy=0;endArrow=none;endFill=0;" edge="1" parent="XRB2rXBV-r8s9CtKsTTs-145" source="XRB2rXBV-r8s9CtKsTTs-158" target="XRB2rXBV-r8s9CtKsTTs-166">
          <mxGeometry relative="1" as="geometry" />
        </mxCell>
        <mxCell id="XRB2rXBV-r8s9CtKsTTs-169" style="edgeStyle=none;rounded=0;orthogonalLoop=1;jettySize=auto;html=1;endArrow=none;endFill=0;entryX=0;entryY=0;entryDx=0;entryDy=0;" edge="1" parent="XRB2rXBV-r8s9CtKsTTs-145" source="XRB2rXBV-r8s9CtKsTTs-170" target="XRB2rXBV-r8s9CtKsTTs-166">
          <mxGeometry relative="1" as="geometry">
            <mxPoint x="162.8571428571429" y="44.782173913043465" as="targetPoint" />
          </mxGeometry>
        </mxCell>
        <mxCell id="XRB2rXBV-r8s9CtKsTTs-170" value="" style="ellipse;whiteSpace=wrap;html=1;aspect=fixed;" vertex="1" parent="XRB2rXBV-r8s9CtKsTTs-145">
          <mxGeometry x="138.5" y="9.999565217391307" width="10" height="10" as="geometry" />
        </mxCell>
        <mxCell id="XRB2rXBV-r8s9CtKsTTs-171" value="" style="rounded=0;orthogonalLoop=1;jettySize=auto;html=1;endArrow=none;endFill=0;" edge="1" parent="XRB2rXBV-r8s9CtKsTTs-145" source="XRB2rXBV-r8s9CtKsTTs-150" target="XRB2rXBV-r8s9CtKsTTs-170">
          <mxGeometry relative="1" as="geometry" />
        </mxCell>
        <mxCell id="XRB2rXBV-r8s9CtKsTTs-172" value="" style="ellipse;whiteSpace=wrap;html=1;aspect=fixed;" vertex="1" parent="XRB2rXBV-r8s9CtKsTTs-145">
          <mxGeometry x="129.0757142857143" y="116.96043478260867" width="10" height="10" as="geometry" />
        </mxCell>
        <mxCell id="XRB2rXBV-r8s9CtKsTTs-173" value="" style="ellipse;whiteSpace=wrap;html=1;aspect=fixed;" vertex="1" parent="XRB2rXBV-r8s9CtKsTTs-145">
          <mxGeometry x="117.28999999999996" y="96.09086956521736" width="10" height="10" as="geometry" />
        </mxCell>
        <mxCell id="XRB2rXBV-r8s9CtKsTTs-174" style="edgeStyle=none;rounded=0;orthogonalLoop=1;jettySize=auto;html=1;endArrow=none;endFill=0;entryX=0;entryY=0;entryDx=0;entryDy=0;" edge="1" parent="XRB2rXBV-r8s9CtKsTTs-145" source="XRB2rXBV-r8s9CtKsTTs-158" target="XRB2rXBV-r8s9CtKsTTs-173">
          <mxGeometry relative="1" as="geometry">
            <mxPoint x="153.42857142857144" y="107.39086956521737" as="targetPoint" />
          </mxGeometry>
        </mxCell>
        <mxCell id="XRB2rXBV-r8s9CtKsTTs-175" style="edgeStyle=none;rounded=0;orthogonalLoop=1;jettySize=auto;html=1;entryX=0;entryY=0.5;entryDx=0;entryDy=0;endArrow=none;endFill=0;" edge="1" parent="XRB2rXBV-r8s9CtKsTTs-145" source="XRB2rXBV-r8s9CtKsTTs-176" target="XRB2rXBV-r8s9CtKsTTs-172">
          <mxGeometry relative="1" as="geometry" />
        </mxCell>
        <mxCell id="XRB2rXBV-r8s9CtKsTTs-176" value="" style="ellipse;whiteSpace=wrap;html=1;aspect=fixed;" vertex="1" parent="XRB2rXBV-r8s9CtKsTTs-145">
          <mxGeometry x="106.28999999999996" y="116.96043478260867" width="10" height="10" as="geometry" />
        </mxCell>
        <mxCell id="XRB2rXBV-r8s9CtKsTTs-177" style="edgeStyle=none;rounded=0;orthogonalLoop=1;jettySize=auto;html=1;entryX=0.5;entryY=0;entryDx=0;entryDy=0;endArrow=none;endFill=0;" edge="1" parent="XRB2rXBV-r8s9CtKsTTs-145" source="XRB2rXBV-r8s9CtKsTTs-173" target="XRB2rXBV-r8s9CtKsTTs-176">
          <mxGeometry relative="1" as="geometry" />
        </mxCell>
        <mxCell id="XRB2rXBV-r8s9CtKsTTs-178" value="" style="ellipse;whiteSpace=wrap;html=1;aspect=fixed;" vertex="1" parent="XRB2rXBV-r8s9CtKsTTs-145">
          <mxGeometry x="154.21857142857152" y="89.13434782608692" width="10" height="10" as="geometry" />
        </mxCell>
        <mxCell id="XRB2rXBV-r8s9CtKsTTs-179" style="edgeStyle=none;rounded=0;orthogonalLoop=1;jettySize=auto;html=1;entryX=0;entryY=1;entryDx=0;entryDy=0;endArrow=none;endFill=0;" edge="1" parent="XRB2rXBV-r8s9CtKsTTs-145" source="XRB2rXBV-r8s9CtKsTTs-172" target="XRB2rXBV-r8s9CtKsTTs-178">
          <mxGeometry relative="1" as="geometry" />
        </mxCell>
        <mxCell id="XRB2rXBV-r8s9CtKsTTs-180" style="edgeStyle=none;rounded=0;orthogonalLoop=1;jettySize=auto;html=1;entryX=0;entryY=0.5;entryDx=0;entryDy=0;endArrow=none;endFill=0;" edge="1" parent="XRB2rXBV-r8s9CtKsTTs-145" source="XRB2rXBV-r8s9CtKsTTs-173" target="XRB2rXBV-r8s9CtKsTTs-178">
          <mxGeometry relative="1" as="geometry" />
        </mxCell>
      </root>
    </mxGraphModel>
  </diagram>
</mxfile>
